<svg xmlns="http://www.w3.org/2000/svg" width="249" height="60" viewBox="0 0 249 60" role="img" aria-label="reshimu labs">
  <style>
    .ink { fill: currentColor; }
    .labs { fill: currentColor; }
  </style>
  <rect class="ink" x="6" y="10" width="10" height="10" rx="1"/> <rect class="ink" x="17" y="10" width="10" height="10" rx="1"/> <rect class="ink" x="28" y="10" width="10" height="10" rx="1"/> <rect class="ink" x="6" y="21" width="10" height="10" rx="1"/> <rect class="ink" x="28" y="21" width="10" height="10" rx="1"/> <rect class="ink" x="6" y="32" width="10" height="10" rx="1"/> <rect class="ink" x="17" y="32" width="10" height="10" rx="1"/> <rect class="ink" x="28" y="32" width="10" height="10" rx="1"/> <path class="ink" d="M140 0V1080H380V816L354 850Q375 906 410.0 952.0Q445 998 496 1028Q535 1052 581.0 1065.5Q627 1079 676.0 1082.5Q725 1086 774 1080V826Q729 840 669.5 835.5Q610 831 562 808Q514 786 481.0 749.5Q448 713 431.0 663.5Q414 614 414 552V0Z" transform="translate(50.00,39.00) scale(0.01600,-0.01600)"/> <path class="ink" d="M642 -30Q476 -30 349.5 41.5Q223 113 151.5 238.5Q80 364 80 526Q80 703 150.0 834.0Q220 965 343.0 1037.5Q466 1110 626 1110Q796 1110 915.0 1030.0Q1034 950 1091.0 805.0Q1148 660 1131 464H862V564Q862 729 809.5 801.5Q757 874 638 874Q499 874 433.5 789.5Q368 705 368 540Q368 389 433.5 306.5Q499 224 626 224Q706 224 763.0 259.0Q820 294 850 360L1122 282Q1061 134 929.5 52.0Q798 -30 642 -30ZM284 464V666H1000V464Z" transform="translate(63.50,39.00) scale(0.01600,-0.01600)"/> <path class="ink" d="M562 -30Q358 -30 232.5 62.5Q107 155 80 324L358 366Q375 290 433.5 247.0Q492 204 582 204Q656 204 696.0 232.5Q736 261 736 312Q736 344 720.0 363.5Q704 383 648.5 402.0Q593 421 476 452Q344 486 265.0 528.0Q186 570 151.0 628.5Q116 687 116 770Q116 874 169.0 950.5Q222 1027 318.5 1068.5Q415 1110 546 1110Q673 1110 771.0 1071.0Q869 1032 929.5 960.0Q990 888 1004 790L726 740Q719 800 674.0 835.0Q629 870 552 876Q477 881 431.5 856.0Q386 831 386 784Q386 756 405.5 737.0Q425 718 486.5 698.0Q548 678 674 646Q797 614 871.5 571.5Q946 529 980.0 469.5Q1014 410 1014 326Q1014 160 894.0 65.0Q774 -30 562 -30Z" transform="translate(83.28,39.00) scale(0.01600,-0.01600)"/> <path class="ink" d="M876 0V510Q876 547 872.0 604.5Q868 662 847.0 720.0Q826 778 778.5 817.0Q731 856 644 856Q609 856 569.0 845.0Q529 834 494.0 802.5Q459 771 436.5 710.0Q414 649 414 548L258 622Q258 750 310.0 862.0Q362 974 466.5 1043.0Q571 1112 730 1112Q857 1112 937.0 1069.0Q1017 1026 1061.5 960.0Q1106 894 1125.0 822.5Q1144 751 1148.0 692.0Q1152 633 1152 606V0ZM138 0V1440H380V700H414V0Z" transform="translate(101.10,39.00) scale(0.01600,-0.01600)"/> <path class="ink" d="M160 1230V1470H432V1230ZM160 0V1080H432V0Z" transform="translate(121.78,39.00) scale(0.01600,-0.01600)"/> <path class="ink" d="M1440 0V638Q1440 745 1389.5 804.5Q1339 864 1250 864Q1193 864 1151.0 837.5Q1109 811 1085.5 763.5Q1062 716 1062 654L948 730Q948 841 1000.5 926.0Q1053 1011 1141.5 1058.5Q1230 1106 1338 1106Q1523 1106 1617.5 996.5Q1712 887 1712 710V0ZM138 0V1080H378V722H412V0ZM790 0V638Q790 745 739.5 804.5Q689 864 600 864Q515 864 463.5 805.5Q412 747 412 654L298 734Q298 840 351.0 924.0Q404 1008 493.5 1057.0Q583 1106 694 1106Q821 1106 902.5 1052.0Q984 998 1023.0 908.0Q1062 818 1062 710V0Z" transform="translate(131.57,39.00) scale(0.01600,-0.01600)"/> <path class="ink" d="M542 -32Q415 -32 335.0 11.0Q255 54 210.5 120.0Q166 186 147.0 257.5Q128 329 124.0 388.0Q120 447 120 474V1080H396V570Q396 533 400.0 475.5Q404 418 425.0 360.0Q446 302 493.5 263.0Q541 224 628 224Q663 224 703.0 235.0Q743 246 778.0 277.5Q813 309 835.5 370.5Q858 432 858 532L1014 458Q1014 330 962.0 218.0Q910 106 805.5 37.0Q701 -32 542 -32ZM892 0V358H858V1080H1132V0Z" transform="translate(161.20,39.00) scale(0.01600,-0.01600)"/> <path class="labs" d="M160 0V1470H307V0Z" opacity="0.55" transform="translate(180.91,39.00) scale(0.01600,-0.01600)"/> <path class="labs" d="M449 -30Q327 -30 244.5 14.0Q162 58 121.0 131.0Q80 204 80 290Q80 378 115.5 440.5Q151 503 212.5 543.0Q274 583 355 604Q437 624 536.5 639.5Q636 655 731.5 666.5Q827 678 899 689L847 657Q850 817 785.0 894.0Q720 971 559 971Q448 971 371.5 921.0Q295 871 264 763L121 805Q158 950 270.0 1030.0Q382 1110 561 1110Q709 1110 812.5 1054.5Q916 999 959 894Q979 847 985.0 789.0Q991 731 991 671V0H860V271L898 255Q843 116 727.0 43.0Q611 -30 449 -30ZM466 97Q569 97 646.0 134.0Q723 171 770.0 235.5Q817 300 831 381Q843 433 844.0 495.5Q845 558 845 589L901 560Q826 550 738.5 540.0Q651 530 566.5 517.0Q482 504 414 486Q368 473 325.0 449.5Q282 426 254.5 387.0Q227 348 227 290Q227 243 250.5 199.0Q274 155 326.5 126.0Q379 97 466 97Z" opacity="0.55" transform="translate(188.70,39.00) scale(0.01600,-0.01600)"/> <path class="labs" d="M625 -30Q476 -30 373.0 45.5Q270 121 217.0 250.5Q164 380 164 541Q164 705 217.5 833.5Q271 962 375.0 1036.0Q479 1110 631 1110Q779 1110 885.0 1035.0Q991 960 1047.5 831.0Q1104 702 1104 541Q1104 379 1047.0 250.0Q990 121 883.0 45.5Q776 -30 625 -30ZM139 0V1440H287V813H271V0ZM610 107Q723 107 798.0 164.0Q873 221 910.5 319.5Q948 418 948 541Q948 663 911.0 761.0Q874 859 798.5 916.0Q723 973 607 973Q494 973 419.5 918.0Q345 863 308.0 765.5Q271 668 271 541Q271 416 308.0 317.5Q345 219 420.0 163.0Q495 107 610 107Z" opacity="0.55" transform="translate(206.80,39.00) scale(0.01600,-0.01600)"/> <path class="labs" d="M543 -29Q353 -29 230.5 53.0Q108 135 80 281L230 306Q254 214 339.5 159.5Q425 105 551 105Q674 105 745.0 156.5Q816 208 816 297Q816 347 793.5 378.5Q771 410 702.0 437.0Q633 464 496 501Q349 541 266.0 581.0Q183 621 148.0 673.5Q113 726 113 802Q113 894 165.0 963.5Q217 1033 309.0 1071.5Q401 1110 523 1110Q645 1110 741.5 1070.5Q838 1031 897.0 960.0Q956 889 967 795L817 768Q802 863 722.5 918.5Q643 974 521 976Q406 979 334.0 932.5Q262 886 262 809Q262 766 288.0 735.5Q314 705 382.5 678.0Q451 651 578 619Q727 581 812.0 539.0Q897 497 933.0 440.0Q969 383 969 299Q969 146 855.5 58.5Q742 -29 543 -29Z" opacity="0.55" transform="translate(226.06,39.00) scale(0.01600,-0.01600)"/>
</svg>
